<svg width="100%" height="100%" id="svg" viewBox="0 0 1440 400" xmlns="http://www.w3.org/2000/svg" class="transition duration-300 ease-in-out delay-150"><defs><linearGradient id="gradient" x1="50%" y1="100%" x2="50%" y2="0%"><stop offset="5%" stop-color="#fff4e888"></stop><stop offset="95%" stop-color="#ebe2d988"></stop></linearGradient></defs><path d="M 0,400 C 0,400 0,133 0,133 C 154.42857142857144,116.57142857142857 308.8571428571429,100.14285714285714 423,93 C 537.1428571428571,85.85714285714286 611.0000000000001,88 726,104 C 840.9999999999999,120 997.1428571428571,149.85714285714283 1123,157 C 1248.857142857143,164.14285714285717 1344.4285714285716,148.57142857142858 1440,133 C 1440,133 1440,400 1440,400 Z" stroke="none" stroke-width="0" fill="url(#gradient)" class="transition-all duration-300 ease-in-out delay-150 path-0"></path><defs><linearGradient id="gradient" x1="50%" y1="100%" x2="50%" y2="0%"><stop offset="5%" stop-color="#fff4e8ff"></stop><stop offset="95%" stop-color="#ebe2d9ff"></stop></linearGradient></defs><path d="M 0,400 C 0,400 0,266 0,266 C 116.10714285714286,274.07142857142856 232.21428571428572,282.14285714285717 338,283 C 443.7857142857143,283.85714285714283 539.25,277.5 671,269 C 802.75,260.5 970.7857142857142,249.8571428571429 1105,249 C 1239.2142857142858,248.1428571428571 1339.607142857143,257.07142857142856 1440,266 C 1440,266 1440,400 1440,400 Z" stroke="none" stroke-width="0" fill="url(#gradient)" class="transition-all duration-300 ease-in-out delay-150 path-1"></path></svg>